<?xml version="1.0" encoding="UTF-8"?>
<!DOCTYPE svg PUBLIC "-//W3C//DTD SVG 1.1//EN" "http://www.w3.org/Graphics/SVG/1.1/DTD/svg11.dtd">
<!-- Creator: CorelDRAW 2017 -->
<svg xmlns="http://www.w3.org/2000/svg" xml:space="preserve" width="414.414mm" height="289.422mm" version="1.1" style="shape-rendering:geometricPrecision; text-rendering:geometricPrecision; image-rendering:optimizeQuality; fill-rule:evenodd; clip-rule:evenodd"
viewBox="0 0 18915.73 13210.51"
 xmlns:xlink="http://www.w3.org/1999/xlink">
 <defs>
  <style type="text/css">
   <![CDATA[
    .str0 {stroke:#FD1C1D;stroke-width:3.48;stroke-miterlimit:22.9256}
    .fil0 {fill:#FD1C1D}
    .fil3 {fill:#FD1C1D}
    .fil1 {fill:#FDE664}
    .fil2 {fill:#FE3A3A}
   ]]>
  </style>
 </defs>
 <g id="Layer_x0020_1">
  <metadata id="CorelCorpID_0Corel-Layer"/>
  <path class="fil0 str0" d="M13863.15 3117.61l-418.5 705.18c-9.48,-8.3 -333.35,-428.91 -543,-635.15 -38.42,-37.8 -49.52,-52.86 -90.73,-72.38 -9.6,30.86 110.68,364.27 127.17,427.42 224.4,860.85 195.89,1847.2 -118.3,2679.73 -83.42,221.06 -170.86,436.1 -283.27,636.64 -50.57,90.23 -75.85,111.18 -108.26,210.89 9.54,159.89 835.5,1906.26 913.72,1968.11 323.06,-463.05 526.02,-847.53 694.27,-1411.78l134.17 -577.76c107.77,8.12 607.76,179.53 773.66,221.86 782.09,199.49 1791.05,362.79 2593.65,444.59 566.98,57.75 1505.73,245.72 1361.58,-548.33 -123.63,-680.95 -815.37,-1372 -1172.45,-1852.47 -572.19,-770 706.42,-1360.1 582.16,-2122.54 -76.1,-467.2 -696.19,-706.48 -1169.04,-861.59 -309.86,-101.7 -461.07,-145.02 -526.45,-489.09 -49.33,-259.6 -5.02,-676.79 22.81,-942.96 -82.67,79.33 -215.98,309.86 -297.78,408.71 -103.19,124.69 -210.02,258.3 -313.03,382.74 -370.47,447.56 -1312.57,1396.29 -1826.81,1667.23 -419.92,221.24 -271.87,-160.2 -335.58,-238.96l0 -0.06z"/>
  <path class="fil0 str0" d="M7731.52 10425.28c-0.31,-21.38 -163.3,-280.3 -199.49,-345.25 -68.42,-122.83 -134.85,-255.39 -197.69,-384.11 -48.84,-100.08 -328.2,-747.44 -355.9,-769.19 -602.37,-265.8 -829.87,-373.94 -1337.6,-787.6 -158.03,-128.72 -138.2,-109.44 -216.22,-310.42 -84.1,-216.47 -171.72,-619.16 -200.73,-849.88 -15.93,-126.67 1.68,-363.1 -67.36,-459.22 -1029.6,-193.97 -1558.78,-360.87 -2690.2,-461.69 -571.07,-50.88 -1574.71,-106.72 -2086.66,198.99 -171.91,102.62 -271.32,218.51 -340.91,449.98 -369.85,1229.77 2145.35,371.65 1497.98,1383.84 -175.63,274.53 -436.04,690 -535.62,1042.12 -330.43,1167.93 1427.09,689.93 1869.26,1212.61 232.58,274.97 -109.63,802.48 -237.47,1172.2 -132.31,382.56 -239.09,942.59 -52,1334.13 233.2,488.15 646.43,409.51 1017.95,156.79 910.06,-618.98 1864.18,-2033.3 2504.54,-3018.72 49.33,-75.92 106.53,-156.6 158.03,-236.54 52.24,-81.06 105.73,-181.27 169.19,-250.06 61.6,36.5 99.22,93.02 138.69,130.08l463.8 381.87c118.8,89.12 539.53,370.16 698.36,410.07l0.07 0.01z"/>
  <path class="fil1" d="M9337.02 1864.85c-3.04,349.58 -31.11,672.02 -14.81,1031.27 68.85,1519.12 460.02,2820.29 997.93,4207.96 92.65,239.03 203.83,481.46 309.73,723.09l334.96 706.73 724.39 1315.36c53.79,93.08 235.99,359.07 245.28,445.58 503.89,-259.91 1135.08,-838.23 1407.38,-1256.72 -78.21,-61.85 -904.17,-1808.22 -913.72,-1968.11 -167.14,-203.52 -762.69,-2208.12 -807.49,-2376.32 -167.2,-628.46 -313.02,-1295.22 -418.62,-1946.17l-79.75 -526.08c-7.62,-49.95 -38.11,-143.72 13.32,-131.69 -86.58,-66.06 -668.99,-182.57 -820.08,-201.47 -280.36,-35.02 -699.67,-62.9 -978.54,-23.42l0 -0z"/>
  <path class="fil1" d="M5685.01 4293.9c6.07,9.48 163.98,1138.98 190.94,1277.43 78.65,403.81 178.42,810.65 294.86,1191.59 167.76,548.77 360.18,1103.72 584.77,1632.41 73.5,172.97 171.54,363.84 222.91,531.35 27.64,21.75 307.01,669.05 355.9,769.19 62.84,128.72 129.28,261.27 197.7,384.11 36.19,65.01 199.18,323.87 199.48,345.25 144.33,135.03 807.68,317.8 1058.36,371.52 262.51,56.33 1023.84,142.35 1283.62,73.62 -31.04,-97.3 -159.88,-299.08 -219.56,-407.84 -73.56,-134.11 -144.51,-269.08 -215.1,-405.48 -64.26,-124.13 -393.65,-756.18 -405.17,-848.52l-265.37 -564.69c-81.12,-190.19 -159.2,-374.99 -236.17,-572.25 -150.53,-385.53 -295.85,-780.29 -429.28,-1186.64 -260.47,-793.36 -511.76,-1709.81 -661.37,-2579.33 -114.4,-459.77 -187.53,-1138.12 -236.98,-1634.82l-14.75 -189.82c-379.89,227.37 -721.97,497.88 -973.21,776.94 -249.93,277.63 -557.68,636.2 -731.58,1035.98l0 0z"/>
  <path class="fil2 str0" d="M7389.8 2480.97l14.75 189.82c266.92,-117.31 557.13,-287.49 923.26,-289.47 438.64,-2.36 599.45,253.28 465.28,661.92 -95.68,291.51 -314.38,557.81 -474.21,726.87 -124.44,131.57 -521.43,487.16 -677.35,535.56 149.54,869.53 400.84,1785.97 661.37,2579.34 133.43,406.35 278.69,801.12 429.28,1186.64 77.03,197.19 155.05,381.99 236.17,572.25l265.37 564.69 -1.12 -46.54c410.44,-40.77 969.18,-231.09 1337.23,-415.52l395.07 -212.57 -334.96 -706.72c-105.97,-241.57 -217.09,-484 -309.73,-723.09 -537.98,-1387.67 -929.15,-2688.84 -997.93,-4207.96 -16.3,-359.25 11.78,-681.76 14.81,-1031.28 -692.91,33.71 -1453.11,323.31 -1947.28,616.13l0 -0.07z"/>
  <path class="fil2 str0" d="M12428.19 7069.93c32.41,-99.71 57.69,-120.72 108.26,-210.89 112.42,-200.6 199.86,-415.58 283.27,-636.64 314.19,-832.53 342.7,-1818.88 118.3,-2679.73 -16.48,-63.15 -136.77,-396.62 -127.17,-427.42 -80.07,-147.87 -554.65,-476 -744.28,-595.24 -201.66,-126.8 -669.55,-376.05 -930.94,-430.27 -51.44,-12.02 -20.95,81.74 -13.32,131.69l79.75 526.08c105.6,650.95 251.42,1317.71 418.62,1946.17 44.75,168.25 640.36,2172.8 807.49,2376.32l0 -0.06z"/>
  <path class="fil0 str0" d="M9233.72 9208.53c11.53,92.34 340.91,724.39 405.17,848.52 70.59,136.4 141.54,271.44 215.1,405.48 59.68,108.76 188.52,310.54 219.56,407.84 357.89,-31.18 692.79,-99.78 1009.22,-203.2 345.74,-112.97 555.39,-226.76 851.8,-372.39 -9.29,-86.51 -191.49,-352.5 -245.28,-445.58l-724.39 -1315.36 -395.07 212.56c-368.05,184.43 -926.79,374.81 -1337.23,415.52l1.12 46.54 -0 0.06z"/>
  <path class="fil2 str0" d="M13863.15 3117.61c63.71,78.76 -84.34,460.21 335.58,238.96 514.24,-270.94 1456.34,-1219.61 1826.81,-1667.23 103,-124.44 209.84,-258.05 313.02,-382.74 81.8,-98.84 215.1,-329.44 297.78,-408.71 43.81,-530.91 -83.97,-1193.58 -632.24,-751.91 -686.1,552.66 -1603.71,2140.52 -2140.94,2971.62l0 -0z"/>
  <path class="fil2 str0" d="M5156.64 6519.62c69.04,96.18 51.44,332.54 67.36,459.21 29,230.72 116.69,633.42 200.73,849.89 78.02,200.91 58.19,181.64 216.22,310.42 507.74,413.6 735.17,521.8 1337.61,787.6 -51.38,-167.51 -149.42,-358.38 -222.92,-531.35 -224.58,-528.62 -417.01,-1083.58 -584.77,-1632.4 -116.44,-380.94 -216.22,-787.79 -294.86,-1191.59 -26.95,-138.45 -184.86,-1267.95 -190.94,-1277.43 -287.92,531.97 -488.09,1276.06 -502.9,1908.74 -1.61,68.23 28.19,292.38 -25.47,316.92l-0.06 -0z"/>
  <path class="fil2 str0" d="M5405.65 9309.91c-257,-52.62 -974.02,591.02 -1184.22,770.5 -397.74,339.49 -1704.85,1465.83 -1220.78,1919.89 515.36,483.44 1337.48,-651.94 1526.62,-919.23 172.29,-243.42 1009.9,-1429.57 878.46,-1771.16l-0.06 -0z"/>
  <path class="fil2 str0" d="M17215.33 2815.44c-1259.27,218.88 -2955.51,2301.33 -1629.12,1870.56 641.59,-208.35 1679.19,-742.36 2060.2,-1337.85 231.78,-362.23 -27.08,-602.92 -431.08,-532.71z"/>
  <path class="fil2 str0" d="M15608.21 6019.63c-156.04,15.62 -362.11,62.28 -300.07,246.4 31.54,93.64 222.29,230.72 300.82,282.9 543.8,361.6 2019.05,872.69 2615.77,813.81 492.31,-48.52 294.74,-435.6 106.04,-642.9 -173.4,-190.56 -511.27,-271.74 -802.53,-341.65 -450.29,-108.02 -1470.22,-403.68 -1920.02,-358.57l0 0z"/>
  <path class="fil2 str0" d="M3563.65 8077.91c-662.79,92.9 -1167.06,276.4 -1644.92,582.85 -644.32,413.23 -938.69,1101.12 143.72,857.45 522.36,-117.63 1837.72,-759.41 2168.89,-1156.4 125.18,-150.03 51.31,-263.75 -134.66,-297.22 -173.96,-31.23 -367.18,-9.98 -533.02,13.26l0 0.06z"/>
  <path class="fil2 str0" d="M1662.1 6271.55c-1201.14,137.58 -826.33,711.31 -489.95,832.84 521,188.21 1208.76,124.38 1731.93,9.8 275.96,-60.49 537.17,-111.36 758.22,-221.24 366,-181.95 -36,-388.81 -245.1,-458.34 -458.1,-152.26 -1228.78,-223.28 -1755.11,-163.05l0 0z"/>
  <path class="fil3 str0" d="M7404.55 2670.79c49.45,496.71 122.58,1175.11 236.98,1634.82 155.92,-48.4 552.98,-403.93 677.35,-535.56 159.83,-169.06 378.53,-435.42 474.21,-726.87 134.17,-408.65 -26.71,-664.28 -465.28,-661.92 -366.13,1.98 -656.34,172.16 -923.26,289.47l0 0.06z"/>
 </g>
</svg>
