<?xml version="1.0" encoding="UTF-8"?>
<!DOCTYPE svg PUBLIC "-//W3C//DTD SVG 1.1//EN" "http://www.w3.org/Graphics/SVG/1.1/DTD/svg11.dtd">
<!-- Creator: CorelDRAW 2017 -->
<svg xmlns="http://www.w3.org/2000/svg" xml:space="preserve" width="352.778mm" height="145.384mm" version="1.1" style="shape-rendering:geometricPrecision; text-rendering:geometricPrecision; image-rendering:optimizeQuality; fill-rule:evenodd; clip-rule:evenodd"
viewBox="0 0 19263.62 7938.79"
 xmlns:xlink="http://www.w3.org/1999/xlink">
 <defs>
  <style type="text/css">
   <![CDATA[
    .fil0 {fill:#090001}
    .fil2 {fill:#323232}
    .fil3 {fill:#FCAB02}
    .fil1 {fill:#FD1C1D}
   ]]>
  </style>
 </defs>
 <g id="Layer_x0020_1">
  <metadata id="CorelCorpID_0Corel-Layer"/>
  <path class="fil0" d="M-0 6149.51l0 53.33c38.35,50.19 86.03,160.68 132.16,234.62 781.83,1253.23 3101.56,1303.33 4374.76,1342.87 1721.33,53.46 3324.11,126.61 5003.04,-252.95 138.2,-31.24 521.15,-149.95 622.71,-148.41 245.12,271.44 417.06,381.95 871.36,495.92 907.02,227.54 1944.47,-168.9 2353.85,-930.51 64.7,-120.37 150.25,-465.3 185.58,-511l3354.12 -805.53c74.86,347.33 417.28,326.18 824.95,367.01 188.55,18.88 365.32,26.82 556.76,9.09 514.02,-47.61 625.44,-556.94 761.57,-1006.37 43.71,-144.31 86.52,-301.22 123.09,-452.81 30.42,-126.12 58.07,-407.29 99.67,-499.68l0 -543.11c-97.2,-240.76 34.41,-704.21 -48.2,-1045.54 -51.78,-213.91 -346.81,-470.93 -553.6,-562.87 -574.38,-255.38 -802.72,146.98 -1430.27,-149.19 -141.5,-66.78 -208.1,-153.99 -332.31,-227.03 -153.92,-90.5 -317.53,-70.94 -481.53,-8.92 -64.96,24.57 -140.56,78.94 -200.5,54.9 -73.18,-29.35 -828.97,-751.65 -2427.73,-1213.22 -1291.39,-372.82 -2629.55,-463.34 -4005.85,-196.57 -819.85,158.91 -1782.5,489.83 -2482.38,907.27l-693.83 426.21c-83.82,-127.23 -151.77,-233.68 -365.23,-245.3 -155.98,-8.48 -347.44,66.41 -458.06,132.06 -259.64,154.11 -389.57,410.85 -349.17,824.38 -661.33,-152.19 -1042.88,-311.53 -1842.41,-164.32 -691.44,127.3 -1557.58,608.89 -2062.66,1096.48 -54.99,53.09 -81.19,85.73 -134.79,134.18l-382.48 387.82c-80.47,97.29 -165.06,194.32 -243.73,295.79 -321.28,414.39 -311.12,344.87 -323.66,713.85 -21.49,632.21 0.07,471.67 124.63,606.46 35.6,38.52 57.36,76.78 79.67,123.11 -202.97,70.05 -256.02,127.77 -407.85,302.75 -154.2,177.7 -173.68,343.25 -241.68,455.24z"/>
  <path class="fil1" d="M9103.04 493.92c796.18,-140.51 2523.43,-219.42 3309.59,-56.19 245.8,51.03 454.85,119.35 674.74,210.06 327.54,135.12 246.08,309.83 195.37,612.81 -40.97,244.75 -106.48,493.64 -182,706.1 -56.87,160.01 -247.34,531.85 -271.02,638.79 89.5,45.02 165.86,99.69 225.32,162.41 -106.51,-19.18 -260.94,-118.31 -434.53,-151.14 -486.68,-92.04 -1216.06,-103.31 -1703.03,-59.31 -740.35,66.89 -1354.98,197.46 -1951.39,456.39 -586.51,254.63 -1005.7,559.64 -1554.07,835.42 -549.58,276.38 -1173.35,467.06 -1765.56,641.24 -407.61,119.9 -580.52,151.91 -1061.86,132.09 -497.36,-20.48 -1831.05,-46.38 -2227.42,-161.1 -192.12,-55.61 -552.49,-204.87 -334.7,-414.92 56.96,-54.94 104.04,-92.47 162.94,-146.02 733.22,-666.64 1732.54,-1238.54 2740.69,-1456.43 133.94,-28.95 402.07,-61.03 501.22,-106.39 -1290.96,-409.33 -2380.26,-220.51 -3398.07,617.32 -291.91,240.29 -458.46,518.07 -498.66,1005.29 -73.66,66.92 -268.64,151.45 -369.79,225.79 -119.82,88.06 -195.54,179.49 -288.75,298.54 -20.71,-225.75 45.42,-367.72 46.97,-545.15 -80.9,78.98 -282.83,261.63 -338.96,357.19 272.89,399.65 1158.78,464.14 1620.75,532.91 1410.88,210.02 2429.03,376.22 3886.53,433.97 521.26,20.65 1069.47,49.35 1595.66,13.34 158.55,-10.85 317.9,-32.65 491.33,-23.08 -42.08,-10.26 -802.97,88.13 -950.07,96.23 -1680.37,92.58 -3335.49,-109.35 -4985.32,-365.18 -498.5,-77.3 -1076.26,-97.09 -1511.43,-375.47 -68.46,-43.79 -99.89,-83.82 -178.21,-110.78l32.51 671.21c137.33,166.59 1361.1,347.97 1683.21,388.84 1267.46,160.79 2574.48,229.83 3860.05,251.64 468.08,7.95 1520.74,-119.09 1461.23,622.44 -22.34,278.36 -239.05,491.38 -417.3,602.17 -572.05,355.54 -3923.48,-145.25 -4695.34,-261.16 -436.77,-65.59 -860.52,-137.25 -1265.7,-295.76 -126.87,-49.64 -268.25,-111.56 -385.94,-142.38 23.62,137.33 85,134.46 189.31,185.82 996.08,490.46 2369.89,596.81 3477.25,678.99 1472.35,109.27 2668.46,341.16 4084.72,-148.7 385.89,-133.47 701.3,-291.64 1017.85,-484.12 173.01,-105.2 827.34,-578.88 904.08,-610.12 -30.71,170.07 -702.11,635.35 -913.91,754.35 -358.83,201.64 -732.91,368.01 -1173.52,504.06 -937.15,289.38 -2007.24,279.91 -3044.52,173.83 -1333.1,-136.33 -3101.64,-144.27 -4288.69,-738.83 -145.88,-73.06 -287.55,-137.13 -345.81,-291.75 -32.34,-85.84 4.74,-82.35 22.12,-158.09 14.45,-62.95 -48.21,-710.84 -76.68,-760.64 -287.54,67.16 -507.55,491.6 -549.67,769.15 -20.47,134.9 79.67,224.13 145.58,302 903.16,1067.15 2875.98,1112.48 4257.2,1147.49 2373.6,60.15 4195.01,158.26 6427.94,-690.75 -79.7,-381.86 -152.91,-583.97 -99.16,-1046.48 101.39,-872.45 431.85,-1925.59 1180.34,-2340.97 643.66,-357.2 1180.45,-320.25 1514.85,418.22 278.05,614.02 206.59,1381.07 138.62,2094.97 182.37,-16.25 546.42,-136.8 749.07,-186.72 757.82,-186.64 1574.38,-276.09 1955.43,-819.55 235.96,-336.52 412,-867.69 481.16,-1369.99 44.77,-325.15 26.09,-516.89 -106.47,-779.7 -114.46,-226.92 -277.21,-377.26 -369.38,-540.5 130.39,182.42 288.79,297.64 417.35,531.97 132.43,241.39 174.73,457.12 128.48,783.66 -78.83,556.69 -205.38,1066.64 -484.89,1440.73 -310.5,415.59 -670.37,491.44 -1264.92,662.41 -460.53,132.43 -1107.99,239.54 -1527.78,398.49l-20.09 115.39c94.63,3 806.89,-242.51 964.42,-287.81 666.46,-191.66 1330.43,-370.08 2011.44,-530.04 141.4,-33.21 996.93,-204.09 1043.45,-229.58 141.79,-175.58 418.73,-1510.29 514.97,-1854.55 71.4,-255.38 195.1,-718.19 364.06,-831.57 336.45,-225.78 528.52,238.06 615.67,460.02 47.12,-346.87 14.95,-581.65 -214.2,-832.5 -465.59,-509.68 -972.92,-370.31 -1518.7,-70.41 -114.28,62.79 -620.47,371.21 -679.47,382.07l443.06 -310.02c69.79,-44.18 444.43,-249.38 471.34,-293.07 -200.89,-10.03 -365.87,-50.62 -510.34,-130.13 -307.25,-169.08 -330.06,-340.2 -687.15,-226.66 -112.33,35.72 -159.99,22.73 -215.35,112.92 -74.69,121.7 -202.6,284.15 -297.48,353.58 36.13,150.32 109.9,167.57 86.17,399.78 -17.81,174.28 -110.47,185.82 -267.83,251.8 -282.85,118.6 -551.65,146.12 -907.86,106.39 -191.91,-21.41 -236.58,48.58 -366.42,120.65 -259.19,143.86 -505.86,417.05 -627.19,414.65 -168.72,-3.34 -290.36,-58.36 -313.2,-214.16 50.87,-111.09 196.37,-156.41 244.21,-292.19 -234.32,-6.92 -373.88,-22.16 -595.23,-66.12 -32.52,-208.25 219.93,-1159.83 295.77,-1358.13 205.14,-536.43 451.74,-538.97 1099.18,-595.86 -112.69,-104.98 -971,-355.88 -1201.93,-413.83 -436.02,-109.44 -924.44,-187.42 -1397.41,-219.61 -505.38,-34.4 -1045.1,-26.21 -1537.87,37.78 -303.2,39.37 -1153.9,167.91 -1360.94,280.25z"/>
  <path class="fil2" d="M5497.45 2445.34c319.81,48.68 600.1,39.27 936.61,47.57 904.26,22.29 1913.01,96.64 2812.3,163.58 299.56,22.3 548.76,-80.96 840.28,-137.7 594.28,-115.67 1710.02,-150.44 2314.05,-45.96 159.01,27.5 256.5,74.49 390.36,105.85 76.98,-97.47 598.66,-1646.13 410.75,-1793.54 -91.81,-72.01 -429.75,-159.8 -571.18,-201.93 -760.99,-226.73 -2057.69,-145.14 -2880.39,-57.8 -223.71,23.75 -477.08,44.8 -699.29,68.95 -266.16,28.92 -402.49,30.81 -640.94,130.63 -174.46,73.03 -351.99,147.39 -540.97,230.09 -310,135.65 -713.49,375.31 -999.75,539.45 -261.24,149.79 -1299.52,857.26 -1371.83,950.82z"/>
  <path class="fil1" d="M9201.25 2749.29c-202.32,-66.77 -1818.45,-124.32 -2153,-143.03 -520.92,-29.13 -1200.36,20.51 -1655.1,-82.89 -143,-32.51 -340.59,27.55 -483.57,57.32 -930.98,193.88 -1622.1,611.19 -2349.06,1117.34l-491.25 376.35c-65.74,53.54 -93.67,96.55 -18.05,173.43 265.2,269.59 1558.33,236.79 2043.32,265.85 985.09,59.02 1050.48,83.86 2001.85,-246.48 603.8,-209.65 1092.42,-415.82 1602.71,-709.21 257.47,-148.04 448.81,-292.48 712.04,-442.95 245.46,-140.31 502.64,-261.71 790.12,-365.75z"/>
  <path class="fil2" d="M12629.59 7344.45c-133.88,50.96 -104.8,93.32 -390.59,159.03 -293.19,67.42 -643.96,-12.08 -890.62,-166.51l-166.72 -121.46c-55.72,-48.09 -109.27,-97.68 -140.12,-148.38 -46.76,6.35 -818.15,266.39 -865.55,292.51 126.7,180.29 395.28,302.32 602.7,375.73 722.19,255.59 1341.46,179.18 1961.28,-232.53 136.99,-90.99 283.22,-222.1 376.84,-355.76 81.03,-115.67 199.24,-395.33 241.62,-509.04 273.04,-732.66 224.39,-1769.54 -280.26,-2397.54 -334.21,-415.91 -967.22,-485.33 -1441.33,-193.55 -82.69,50.9 -76.52,46.61 -127.05,126 -84.59,132.9 -210.35,352.86 -257.8,492.43 -83.75,246.32 -175.82,503.29 -233.09,767.62 -97.68,450.85 -167.51,840.16 -65.08,1318.99 38.38,179.41 89.38,222.39 196.01,303.27 215.46,163.43 333.9,272.35 645.96,357.01 287.97,78.12 592.8,48.9 833.78,-67.8z"/>
  <path class="fil2" d="M828.33 6291.77c421.47,157.62 1117.52,323.15 1609.27,389.78 1259.95,170.72 2322.05,366.2 3629.64,398.01 233.02,5.67 745.21,27.64 938.12,-53.96 568.27,-240.37 755.43,-920.84 82.59,-1089.86 -260.08,-65.34 -664.96,-48.34 -947.33,-51.27 -1088.12,-11.31 -4826.32,-184.53 -5458.83,-594.22 14.28,116.78 91.08,90.86 104.66,470.06 3.54,98.96 10.24,172.83 26.45,267.75 30.76,180.13 -17.12,193.6 15.43,263.71z"/>
  <path class="fil2" d="M16954.64 5625.91c86.52,259.41 506,243.9 825.2,268.47 147.52,11.36 623.31,35.87 749.05,-40.38 39.84,-24.16 121.22,-112.5 137.98,-145.75 -318.7,80.79 -482.24,-108.64 -564.46,-383.73 -102.15,-341.78 13.9,-615.55 15.19,-921.63 6.64,413.6 -15.48,833.36 212.11,1097.99 355.31,413.16 516.69,-62.72 615.41,-426.45 200.15,-737.5 421.26,-1606.13 -17,-2310.31 -58.04,-93.26 -146.36,-211.27 -308.14,-132.22 -156.6,76.52 -197.08,239.54 -245.3,430.83 -191.68,760.29 -363.44,1588.09 -694.57,2290.63 -93.34,198.04 -505.59,142.51 -725.46,272.53z"/>
  <path class="fil0" d="M6919.64 4951.68c144.42,92.52 521.22,112.05 711.49,80 582.51,-98.11 1214.57,-545.28 1656.19,-867.48 321.44,-234.52 623.3,-463.96 1003.66,-671.63 430.13,-234.85 750.13,-297.55 1278.2,-402.36 -73.55,-129.87 -570.21,-187.16 -685.15,-189.5 -289.44,-5.9 -522.74,32.85 -771.43,104.85 -844.81,244.57 -1461.03,755.28 -2389.42,1039.67 -96.17,29.46 -243.44,48.64 -321.51,101.44 -183.2,123.88 -494.64,506.16 -482.01,805.02z"/>
  <path class="fil2" d="M13245.09 2723.27l663.29 2.46c306.16,-367.64 270.67,-801.33 1188.21,-935.57 246.47,-36.06 405.77,18.22 620.48,70.6 -21.76,-110.04 -174.13,-330.49 -233.88,-410.44 -263.57,-352.59 -381.28,-497.87 -764.97,-522.47 -836.69,-53.66 -981.38,109.09 -1196.15,746.8 -96.37,286.14 -238.54,729.12 -276.98,1048.61z"/>
  <path class="fil3" d="M7006.2 4940.12c567.35,83.22 802.42,-4.12 1250.33,-227.62 348.45,-173.87 660.16,-409.02 941.89,-617.83 563.1,-417.37 1193.33,-875.16 2093.01,-1030.78 -302.79,-174.25 -1020.36,-28.96 -1328.4,80.23 -795.99,282.15 -1450.9,784.81 -2200.18,959.98 -302.5,70.71 -255.49,0.79 -486.68,302.72 -94.1,122.9 -227.63,350.64 -269.97,533.31z"/>
  <path class="fil1" d="M15223.17 1866.62c-298.99,44.5 -497.86,62 -729.75,202.95 -319.25,194.04 -270.37,486.94 -729.19,908.07 -44.77,41.09 -98.03,64.71 -134.22,99.28 -116.75,111.55 84.78,195.64 221.3,185.71 106.83,-7.76 214.71,-130.94 299.35,-187.11 970.7,-644.15 780.26,-181.28 1462.04,-406.64 90.63,-29.96 265.84,-81.64 297.93,-163.78 141.11,-361.24 -319.29,-693.28 -687.46,-638.48z"/>
  <path class="fil1" d="M5512.98 2231.54c121.31,38.43 62.36,63.62 266.47,-111.29 253.18,-216.96 497.88,-376.95 751.2,-578.24 -75.56,-382.38 -1137.56,-240.38 -1017.67,689.53z"/>
  <path class="fil3" d="M962.25 4255.15c76.08,-42.89 152.35,-102.95 244.03,-158.12 80.36,-48.36 175.57,-94.01 262.4,-147.07 -0.35,-208.86 -11.8,-417.8 62.26,-610.24 -60.91,36.18 -330.84,295.51 -378.37,356.67 -77.33,99.51 -176.8,411.33 -190.32,558.76z"/>
 </g>
</svg>
