<?xml version="1.0" encoding="UTF-8"?>
<!DOCTYPE svg PUBLIC "-//W3C//DTD SVG 1.1//EN" "http://www.w3.org/Graphics/SVG/1.1/DTD/svg11.dtd">
<!-- Creator: CorelDRAW 2017 -->
<svg xmlns="http://www.w3.org/2000/svg" xml:space="preserve" width="74.5998mm" height="50.5842mm" version="1.1" style="shape-rendering:geometricPrecision; text-rendering:geometricPrecision; image-rendering:optimizeQuality; fill-rule:evenodd; clip-rule:evenodd"
viewBox="0 0 1874.65 1271.15"
 xmlns:xlink="http://www.w3.org/1999/xlink">
 <defs>
  <style type="text/css">
   <![CDATA[
    .fil0 {fill:#D60A05}
   ]]>
  </style>
 </defs>
 <g id="Layer_x0020_1">
  <metadata id="CorelCorpID_0Corel-Layer"/>
  <path class="fil0" d="M289.39 351.1c-174.4,72.64 -292.86,170.39 -289.31,377.82 1.57,92.08 45.2,194.06 90.49,239.87 48.26,48.82 53.47,27.88 52.65,114.25 -0.48,51.31 -8.2,121.59 5.65,163.99 35.75,36.26 236.34,23.24 289.71,14.38 19.45,-43.46 12.64,-100.81 12.64,-160.04l957.28 0.33c1.66,188.03 -14.1,164.96 153.97,164.97 26.69,0 53.84,0.66 80.4,0.48 9.18,-0.06 24.28,0.14 32.84,-1.49 71.34,-13.56 42.31,-103.84 40.73,-234.37 48.2,-40.74 91.67,-82.14 122.58,-150.51 67.32,-148.9 37.13,-314.54 -73.08,-426.38 -51.23,-51.98 -98.7,-68.99 -180.37,-103.31 -6.2,-87.44 -22.87,-125.2 -62.6,-185.35 -31.87,-48.25 -75.31,-90.19 -132.65,-115.6 -151.83,-67.28 -744.4,-65.5 -899.55,-2.83 -47.42,19.15 -76.83,48.09 -107.21,78.56 -58.11,58.27 -87.81,133.12 -94.16,225.23zm43.9 -6.56l1208.18 -0.6c-0.92,-122.4 -96.29,-224.45 -185.25,-259.97 -139.39,-55.66 -690.2,-53.73 -830.99,-2.53 -93.45,33.98 -190.79,136.41 -191.94,263.1zm-54.95 257.64c-165.84,44.04 -92.13,292.24 75.3,239.02 54.77,-17.41 98.54,-88 76.31,-159.14 -16.82,-53.82 -80.05,-98.88 -151.61,-79.88zm216.45 57.62c-6.7,34.41 2.74,39.68 39.33,39.68l806.72 0c34.61,0 45.31,-7.42 38.89,-35.69l-884.94 -3.99zm0.45 125.16c76.13,15.18 797.63,13.85 885.07,3.96 9.09,-45.85 -23.25,-40.53 -65.41,-40.14l-745.76 0.17c-43.11,-0.53 -86.39,-8.87 -73.91,36.01zm1035.39 -181.16c-170.02,51.63 -85.54,286.25 73.92,238.16 55.23,-16.66 101.22,-86.61 76.93,-160.99 -17.86,-54.67 -74.23,-100.44 -150.85,-77.17z"/>
 </g>
</svg>
