<?xml version="1.0" encoding="UTF-8"?>
<!DOCTYPE svg PUBLIC "-//W3C//DTD SVG 1.1//EN" "http://www.w3.org/Graphics/SVG/1.1/DTD/svg11.dtd">
<!-- Creator: CorelDRAW 2017 -->
<svg xmlns="http://www.w3.org/2000/svg" xml:space="preserve" width="316.089mm" height="360.892mm" version="1.1" style="shape-rendering:geometricPrecision; text-rendering:geometricPrecision; image-rendering:optimizeQuality; fill-rule:evenodd; clip-rule:evenodd"
viewBox="0 0 3227.16 3684.58"
 xmlns:xlink="http://www.w3.org/1999/xlink">
 <defs>
  <style type="text/css">
   <![CDATA[
    .str0 {stroke:#564436;stroke-width:2.55;stroke-miterlimit:22.9256}
    .str1 {stroke:#5D5453;stroke-width:2.55;stroke-miterlimit:22.9256}
    .fil5 {fill:#FEFEFE}
    .fil2 {fill:#564436}
    .fil1 {fill:#5D5453}
    .fil3 {fill:#C4B3A4}
    .fil0 {fill:#D1C5B9}
    .fil4 {fill:#DB9848}
    .fil6 {fill:#F09898}
    .fil7 {fill:white}
   ]]>
  </style>
 </defs>
 <g id="Layer_x0020_1">
  <metadata id="CorelCorpID_0Corel-Layer"/>
  <path class="fil0" d="M1838.75 3211.34c1.53,-8.74 1.87,-6.79 0.53,-16.72 -0.19,-1.43 -1.11,-5.83 -1.46,-7.22 -2.38,-9.4 -2.35,-7.54 -3.83,-10.64 -1.19,4.18 0.77,10.73 -6.19,8.89l-12.27 -138.43c-1.69,-51.23 -4.49,-98.84 -4.14,-151.46 0.71,-107.14 69.48,-132.63 34.54,-247.18 -13.92,-45.64 -25.56,-70.26 -23.23,-127.38 4.1,-100.37 50.64,-287.69 115.15,-345.09 -9.08,23.39 -57.24,102.47 -60.23,134.52 141.61,7.09 325.58,-19.81 459.29,-60.56 34.08,-10.39 102.76,-29.64 129.56,-45.79 -5.99,-23.93 -26.79,-61.67 -29.82,-88.45l174.62 400.89c51.94,133.02 -18.05,129.65 74.7,275.27 17.71,27.81 27.84,39.39 39.66,75.44 9.31,28.43 17.32,59.54 24.84,90.55 20.74,85.55 44.1,218.54 41.75,308.81 -0.64,24.53 -6.63,92.95 13.11,104.65 27.87,16.52 56.2,-25.71 48.08,61.85 -3.63,39.15 -4.22,72.66 -3.36,112.69 75.73,-71.05 146.23,-133.09 264.65,-119.37 -106.09,-116.49 -155.76,-257.47 -190.77,-418.81 -17.27,-79.56 -39.77,-185.14 -23.09,-272.21 28.15,-146.94 -21.39,-111.34 -47.08,-244.89 -16.09,-83.65 -12.2,-203.11 -1.76,-283.11 12.12,-92.97 41.87,-164.62 56.75,-252.98 26.46,-157.17 -14.38,-298.19 -92.5,-426.98 -14.22,-23.44 -22.59,-10.47 -49.85,-17.66 -1,-0.26 -2.05,-0.66 -2.95,-0.94l-5.79 -2.3c95.63,-8.85 121.67,49.29 195.72,43.8 57.33,-4.25 125.61,-56.7 147.22,-95.43 -19.77,0.2 -26.3,-3.02 -44.45,-5.61 -14.96,-2.14 -25.48,1.5 -36.18,-3.03 -12.36,-5.23 -4.7,-2.25 -9.07,-6.94 54.47,-2.2 69.9,-10.22 103.68,-39.45 29.61,-25.62 44.87,-46.67 71.31,-73.97 -35.98,7.08 -71.44,26.3 -127.57,23.87 18.48,-12.91 55.42,-15.56 95.92,-57.88 16.88,-17.64 50.75,-61.67 57.76,-95.45 -78.96,18.35 -139.73,-1.16 -242.9,61.52 -68.68,41.72 -103.98,96.41 -141.18,164.08 54.67,-5.42 107.13,-76.62 131.59,-96.63 -11.29,34.95 -76.35,88.85 -118.63,102.91 -56.64,18.83 -129.57,-17.56 -186.67,-27.84 -161.26,-29.04 -258.72,-7.85 -407.99,13.61 -258.17,37.12 -437.89,-121.34 -692.63,-192.77 -18.61,132.1 -81.93,209.42 -141.88,283.79 -7.97,9.89 -15.1,16.46 -23.5,27.05l-165.03 208.82c-7.22,10.78 -12.5,20.7 -18.94,31.69 -9.81,16.74 -6.01,19.11 1.59,36.26 51.94,117.2 112.51,237.36 208.13,324.68 22.53,20.57 89.96,79.01 122.81,88.71 -31.92,-60.37 -158.75,-208.06 -147.54,-300.77 -2.76,69.88 125.03,244.87 162.76,307.85 58.36,97.41 114.29,239.83 94.35,378.12 -14.14,98.1 -46.19,90.01 -3.24,189.68 27.62,64.09 20.67,144.77 20.21,217.26 -0.64,102.08 2.05,235.59 -23.25,333.21 -7.29,28.11 -14.99,65.98 -25.42,93.35 38.48,-20.44 76.07,-40.18 128.53,-41.28 39.89,-0.83 118.7,16.77 133.36,40.93 7.26,-7.68 -24.08,-93.35 -27.35,-103.81 -12.5,-40.1 -18.8,-76.62 -21.05,-124.31 0.89,-0.58 2.02,-3.07 2.46,-2.02 0.39,0.92 2.1,-1.06 2.58,-1.04 0.62,0.03 4.48,1.22 5.61,1.64z"/>
  <path class="fil1" d="M-0 777.94l0 22.8c5.23,6.25 7.38,11.23 11.07,16.46 29.2,41.45 89.35,69.25 134.98,90.44 -25.38,36.21 -62.2,69.03 -57.66,144.22 3.93,65.2 20.99,25.02 1.47,79.42 -28.1,78.34 4.26,169.99 70.94,213.71 37.09,24.31 42.77,13.43 83.95,16.35 40.44,2.87 48.28,8.55 94.7,3.28 3.98,37.93 17.03,67.99 40.62,92.08 30.4,31.04 49.35,34.48 103.19,32.76 3.7,39.36 12.87,61.38 -0.24,102.87 -13.37,42.3 -33.49,47.4 -46.03,70.61 49.51,-19.41 99.94,-52.31 115.62,-97.62l11.6 17c1.35,3.51 4.77,14.18 6.02,19.07 11.43,44.5 -0.04,90.14 -17.36,129.36 35.48,1.5 66.65,-40.6 79.66,-64.66 21.93,-40.57 22.38,-72.47 29.13,-120.49l4.45 -0.92c0.41,0.02 1.75,-0.12 2.26,-0.05 16.14,2.26 53.55,32.46 65.2,43.04 36.08,-81.85 22.12,-181.3 -49.58,-236.7 -8.92,-6.89 -20.48,-11.12 -26.65,-18.31 51.12,-45.68 212.31,-52.98 289.94,-65.26 57.4,46.9 153.66,263.23 156.72,303 11.69,7.84 5.34,-1.92 16.38,29.92 2.69,7.75 7.63,19.1 10.58,29.17 -3.89,-3.87 -3.79,-0.46 3.88,-3.71l-73.81 -197.23c-29.94,-64.85 -35.22,-74.23 -72.49,-129.9 -9.27,-13.86 -19.4,-24.32 -29.27,-36.39 22.99,-9.9 88.62,-58.69 89.82,-71.3 27.26,54.35 103.88,269.86 216.34,189.81 81.03,-57.68 125.77,-217.6 128.39,-315.92l51.64 81.07c-1.61,-11.26 -3.53,-7.8 8.87,-7.46 -14.78,-10.83 -39.11,-56.67 -50.4,-78.66 -15.64,-30.48 -10.68,-75.69 -16.79,-112.36 -32.39,-194.28 -133.31,-316.42 -147.55,-371.25 -10.33,-39.79 -35.67,-103.07 -60.12,-134.72 -11.25,-14.57 -23.44,-22.26 -31.6,-34 -1.42,-28.35 33.58,-80.54 47.61,-94.65 19.84,-19.95 78.71,-77.61 105.4,-67.89 12.71,4.63 48.12,40.01 57.19,50.25 13.76,15.52 75.55,82.75 94.11,47.22 11.31,-21.66 5.92,-68.29 -0.98,-87.76 32.56,19.13 65.7,40.88 86.84,69.41 43.72,58.99 47.5,85.4 78.09,130.73 43.64,64.68 98.11,-52.56 42.78,-189.71 -33.93,-84.09 -36.96,-75.76 -71.71,-126.93 -9.42,-13.87 -17.73,-23.81 -31.42,-33.46l-40.31 -28.48c-68.65,-47.12 -183.81,-66.28 -265.64,-59.03 -39.45,3.49 -68.13,-14.28 -108.76,-17.18l-73.53 0c-49.19,3.4 -140.49,27.43 -179.97,51.37 -82.18,49.83 -124.3,93.34 -177.13,169.6 -34.19,49.36 -38.63,61.59 -58.37,115 -7.18,19.44 -13.69,15.23 -30.1,26.68 -33.35,23.27 -31.31,29.24 -62.49,52.58 -40.67,30.45 -99.77,66.7 -125.74,104.98 -21.05,31.02 0.19,28.04 -49.51,65.63 -112.16,84.85 -95.21,63.53 -237.37,108.26 -69.86,21.98 -106.77,35.7 -146.8,83.83z"/>
  <path class="fil2" d="M1134.8 1625.75c-7.67,3.25 -7.77,-0.16 -3.88,3.71 -2.95,-10.07 -7.89,-21.42 -10.58,-29.17 -11.04,-31.83 -4.69,-22.07 -16.38,-29.92 -8.02,69.7 -51.08,169.14 -74.05,237.84 -30.22,90.39 -25.78,192.44 -18.37,287.61 -15.42,6.73 -30.13,27.97 -35.57,51.33 -8,34.35 2.83,50.7 14.44,75.12 -46.17,18.49 -70.26,22.94 -107.31,72.83 -5.54,7.47 -9.46,11.93 -15.31,20.85 -10.15,15.48 -18.82,29.95 -27.35,48.33 -34.12,73.56 -15.72,75.02 -50.32,93.25 -52.23,27.52 -48.31,43.03 -72.76,74.51 12.28,13.3 -2.05,3.97 7.42,3.35l3.77 -1.67c2.37,-1.82 11.16,-29.05 48.18,-56.88 10.18,-7.65 24.81,-15.67 39.76,-21.58l41.34 -13.24 -36.08 1.33c9.21,-43.38 42.97,-108.88 65.38,-137.22 39.17,-49.53 63.36,-67.54 122.23,-75.43 -5.35,-10.83 -61.65,-68.77 3.28,-123.16 10.32,-8.65 20.39,-15.12 36.95,-17.78 -5.15,29.09 -20.41,43.78 -28.73,65.83 -10.64,28.2 5.35,55.2 28.73,61.92 30.68,8.82 56.53,-10.22 61.04,-33.22 3.78,-19.3 -3.6,-25.45 -3.76,-37.99 -0.13,-10.02 7.24,-25.13 9.14,-36.15 28.37,17.19 41.36,80.53 -1.76,116.91l-34.72 21.34c32.85,16.11 59.12,61.1 69.9,109.49 12.44,55.81 5.65,110.89 -2.58,165.23l-27.73 -14.11c12.94,25.36 77.4,60.18 62.26,164 -29.69,-19.23 -43.99,-27.9 -83.06,-43.38 -30.02,-11.89 -65.67,-24.5 -99.42,-33.91 -66.18,-18.44 -122.75,-32.79 -190.52,-40.54 -1.99,-0.23 -14.63,-1.21 -16.06,-1.11l-12.87 3.16c5.21,5.17 3.62,6.81 20.02,8.98 34.43,4.55 101.89,9.77 127.67,23.44 -19.81,28.37 -8.92,57.75 -3.64,77.04 -55.63,-14.26 -166.2,-42.8 -194.46,-77.76 -9.18,6.18 -12.03,-9.99 -5.77,12.28 31.71,18.98 56.41,32.23 97.86,46.41 20.3,6.94 102.57,26.83 111.78,35.73 7.36,7.12 14.72,21.76 41.54,30.84 26.21,8.87 44.5,4.9 67.01,-4.95 34.88,-15.26 92.07,10.14 132.56,-7.33 36.41,-15.71 23.04,-99.47 -1.88,-142.49 -2.82,-4.87 -13.42,-20.07 -14.17,-22.29 -4.59,-13.59 5.43,-48.77 7.37,-66.09 9.92,-88.66 -14.51,-188.01 -65.29,-222.42 23.25,-11.43 46.4,-31.79 51.53,-63.8 6.31,-39.29 -10.21,-70.18 -32.12,-84.13 2.2,-32.67 25.55,-189.65 37.08,-224.43 7.35,-22.19 19.9,-45.62 24.68,-67.09 9.61,12.8 8.5,35.37 11.13,60.25 2.28,21.56 5.28,42.18 8.53,63.47 31.8,207.85 91.4,360.02 160.16,553.04 24.18,67.88 22.65,49.97 -9.91,100.9 -26.72,41.79 -17.94,64.66 -5.45,112.4 18.64,71.23 -135.31,318.2 -189.49,369.66 -102.39,97.26 -46.98,44.76 -167.44,116.7 -50.4,30.1 -131.41,98.38 -126.66,164.05 15.17,7.58 23.38,5.48 41.48,3.77 -5.31,9.47 -15.37,22.4 -17.67,35.85 5.94,43.54 272.56,52.65 344.86,-47.99 51.55,-71.75 -19.37,-101.56 100.28,-126.55 40.79,-8.52 46.37,-19.14 48.95,-62.57 3.81,-64.24 43.6,-216.4 60.7,-277.88 32.54,-116.98 29.46,-87 89.68,-137.28 66.83,-55.81 19.88,-101.96 25.93,-179.68 3.08,-39.56 43.29,-129.02 56.02,-170.64 8.33,9.74 10.02,23.09 13.08,35.9 43.22,180.62 -15.55,255.35 -12.48,307.61 3.09,52.55 38.81,81.1 41.06,154.81 2.9,95.13 1.33,293.78 -7.07,386.62 -5.29,58.5 -23.07,106.82 -37.97,159.58 -21.88,77.47 -46.15,165.93 30,220.98 97.47,70.47 87.86,5.51 104.26,-28.26 36.25,73.35 61.21,63.61 100.03,27.63 17.46,-16.19 29.43,-27.21 42.9,-51.11 12.93,-22.93 22.85,-47.72 22.39,-77.92 -1.11,-73.42 -77.05,-217.45 -69.81,-311.15 -1.12,-0.42 -4.99,-1.61 -5.61,-1.64 -0.48,-0.03 -2.19,1.96 -2.58,1.04 -0.44,-1.05 -1.57,1.44 -2.46,2.02 2.25,47.69 8.55,84.21 21.05,124.31 3.26,10.46 34.61,96.13 27.35,103.81 -14.65,-24.16 -93.47,-41.76 -133.36,-40.93 -52.46,1.1 -90.05,20.84 -128.53,41.28 10.43,-27.37 18.13,-65.24 25.42,-93.35 25.3,-97.63 22.61,-231.14 23.25,-333.21 0.46,-72.5 7.4,-153.18 -20.21,-217.26 -42.95,-99.66 -10.9,-91.58 3.24,-189.68 19.94,-138.29 -35.99,-280.71 -94.35,-378.12 -37.73,-62.98 -165.52,-237.97 -162.76,-307.85 -11.21,92.72 115.62,240.4 147.54,300.77 -32.85,-9.7 -100.29,-68.14 -122.81,-88.71 -95.62,-87.31 -156.19,-207.47 -208.13,-324.68 -7.6,-17.15 -11.4,-19.52 -1.59,-36.26 6.44,-10.99 11.72,-20.91 18.94,-31.69l165.03 -208.82c8.4,-10.59 15.53,-17.16 23.5,-27.05 59.95,-74.38 123.26,-151.7 141.88,-283.79 254.74,71.44 434.46,229.89 692.63,192.77 149.27,-21.46 246.73,-42.65 407.99,-13.61 57.1,10.28 130.03,46.67 186.67,27.84 42.29,-14.06 107.34,-67.96 118.63,-102.91 -24.46,20 -76.91,91.21 -131.59,96.63 37.2,-67.67 72.5,-122.36 141.18,-164.08 103.18,-62.67 163.95,-43.17 242.9,-61.52 -7.01,33.78 -40.88,77.81 -57.76,95.45 -40.5,42.31 -77.44,44.97 -95.92,57.88 56.13,2.43 91.59,-16.79 127.57,-23.87 -26.44,27.3 -41.7,48.34 -71.31,73.97 -33.78,29.24 -49.21,37.25 -103.68,39.45 4.36,4.69 -3.29,1.71 9.07,6.94 10.7,4.53 21.21,0.89 36.18,3.03 18.15,2.6 24.68,5.81 44.45,5.61 -21.61,38.73 -89.88,91.19 -147.22,95.43 -74.04,5.48 -100.08,-52.65 -195.72,-43.8l5.79 2.3c0.89,0.27 1.95,0.67 2.95,0.94 27.26,7.19 35.63,-5.77 49.85,17.66 78.12,128.79 118.95,269.81 92.5,426.98 -14.87,88.35 -44.62,160 -56.75,252.98 -10.43,80 -14.33,199.47 1.76,283.11 25.7,133.55 75.23,97.94 47.08,244.89 -16.68,87.06 5.83,192.65 23.09,272.21 35.02,161.33 84.69,302.31 190.77,418.81 -118.41,-13.72 -188.92,48.32 -264.65,119.37 -0.86,-40.03 -0.27,-73.54 3.36,-112.69 8.11,-87.56 -20.21,-45.33 -48.08,-61.85 -19.74,-11.7 -13.75,-80.12 -13.11,-104.65 2.35,-90.27 -21.01,-223.26 -41.75,-308.81 -7.52,-31.01 -15.52,-62.12 -24.84,-90.55 -11.81,-36.05 -21.94,-47.63 -39.66,-75.44 -92.75,-145.63 -22.76,-142.25 -74.7,-275.27l-174.62 -400.89c3.03,26.78 23.83,64.52 29.82,88.45 -26.79,16.15 -95.48,35.4 -129.56,45.79 -133.72,40.75 -317.68,67.65 -459.29,60.56 2.99,-32.05 51.15,-111.13 60.23,-134.52 -64.51,57.4 -111.05,244.73 -115.15,345.09 -2.33,57.13 9.31,81.75 23.23,127.38 34.93,114.56 -33.83,140.05 -34.54,247.18 -0.35,52.62 2.45,100.23 4.14,151.46l12.27 138.43c6.96,1.84 5,-4.71 6.19,-8.89 -5.66,-74.09 -25.03,-274.98 -3.12,-344.45 10.21,-32.35 24.33,-62.58 32.26,-93.77 28.34,-111.45 -86.11,-101.35 8.25,-419.4 66.64,3.14 123.77,-1.41 188.81,-5.13l86.64 80.92c40.07,35.69 115.18,95.89 163.92,124.29 4.36,2.54 9.4,5.05 13.76,7.9 12.64,8.28 6.33,0.57 10.48,11.14 10.31,26.3 -10,75.43 31.01,134.23 -13.14,33.91 -80.89,148.19 -102.67,185.18 -65.88,111.9 -102.14,169.66 -200.25,235.46l-64.2 43.96c-41.27,29.79 -60.74,38.02 -94.06,89.82 -17.85,27.75 -36.66,67.73 -38.03,107.3 18.11,7.83 31.73,6.01 51.19,3.47 -5.14,16.74 -14.15,39.42 6.78,46.02 30.49,9.63 199.5,-16.78 224.94,-23.24 150.28,-38.15 80.56,-124.88 108.58,-162.18 14.41,-12.65 45.64,-12.09 62.4,-27.63 20.26,-18.79 9.47,-46.21 10.35,-76.63 2.09,-72.07 141.01,-327.88 176.62,-377.51 26.73,-37.26 64.07,-48.39 81.58,-101.86 19.85,-60.61 -18.53,-104.67 -44.26,-135.42 -30.28,-36.2 -49.44,-67.04 -72.59,-110.85 -13.73,-26 -54.28,-101.79 -57.08,-131.7l58.48 -23.28 116.26 267.82c75.77,183.78 -11.13,145.88 82.07,303.31 39.22,66.25 35.06,41.75 59.49,131.6 24.56,90.35 51.94,238.5 52.41,332.61 0.16,32.02 -3.52,64.82 1.49,96.59 9.17,58.25 33.24,23.18 55.15,41.32 14.01,14.87 -1.13,98.66 -1,125.04 0.24,48.74 2.23,79.96 31.4,104.07 34.41,28.45 96.57,50.65 144.23,58.09 10.67,1.67 17.76,3.05 27.88,4.81l27.76 4.78c0.78,0.23 2.08,0.62 3.03,1.12l69.36 0c15.73,-5.46 6.06,-36.26 1.75,-51.61l-4.51 4.64c-4.62,4.45 -1.75,2.79 -5.91,5.65 -7.05,4.85 -2.88,4.17 -11.95,1.72 -2.08,-8.42 11.7,-13.95 5.05,-11.61 -6.23,-8.95 -0.56,-1.33 -19.44,-4.16l-9.07 -18.82c-49.05,5.98 -157.26,3.73 -199.38,-22.89 -15.15,-9.58 -25.7,-12.5 -31.46,-27.03 -2.82,-7.11 -3.38,-10.2 1.29,-17.28 8.77,-13.3 34.72,-26.5 63.17,-52.01 6.56,-5.88 7.22,-7.04 15.28,-12.88 3.47,-2.51 5.98,-4.24 9.21,-6.07l9.97 -4.85c8.68,-3.68 0.41,0.09 9.33,-3.46 38.3,-15.27 2.8,-10.12 52.32,-19.63 79.09,-15.2 73.97,-20.36 122.37,93.16 2.57,6.04 6.86,15.4 7.68,22.07 1.54,12.49 -7.13,23.12 15.62,31.41 16.5,6.02 7.2,-9.77 15.71,12.5 -29.14,10.49 -17.96,2.03 -43.86,-18.59 -16.88,-13.44 -32.29,-34.66 -43.65,-52.78 -7.16,-11.42 -18.7,-28.68 -32.3,-15.17 14.93,10.31 10.48,-0.69 21.12,14.88 0.39,0.57 6,10.72 6.57,11.8l14.55 22.67c4.73,8.17 3.32,4 3.65,13.48 0.38,11.03 -7.52,13.41 6.98,18.46 -3.64,15.53 -7,11.39 -9.8,17.77l30.68 3.8c-2.95,-9.65 -2.08,-14.99 -20.67,-26.6 6.65,-5.81 2.12,-0.64 7.99,-7.5 7.13,10.06 7.37,3.2 15.53,16.82 7.29,12.18 2.2,7.98 15.16,21.22 5.73,6.52 30.07,11.58 40.59,13.24 0.97,-215.76 -117.46,-176.39 -218.22,-451.89 -33.89,-92.68 -91.85,-311.89 -79.71,-417.38 16.23,-141.02 32.64,-84.2 -17.56,-201.88 -61.68,-144.57 -35.9,-366.22 6.69,-507.32 50.62,-167.7 41.33,-327.17 -40.52,-481.9 -9.12,-17.23 -25.26,-40.47 -30.58,-55.92 64.22,14.18 82.55,61.95 174.1,28.49 47.26,-17.27 104.98,-64.98 120.68,-105.36l-49.57 1c8.9,-10.06 31.06,-19.58 43.52,-29.32 16.52,-12.92 21.33,-18.8 37.69,-34.41 17.49,-16.7 20.18,-20.61 34.46,-37.65 8.51,-10.16 24.71,-29.38 30.61,-43.34 -20.92,6.08 -41.45,27.57 -93.38,33.81 0.67,-0.82 1.75,-3.03 2.14,-2.35 0.38,0.67 1.61,-1.77 2.13,-2.26 0.5,-0.47 1.51,-1.54 2.13,-2.1 0.59,-0.53 1.47,-1.34 2.12,-1.89 20.34,-17.42 36.05,-28.73 54.65,-53.51 25.82,-34.42 35.01,-69.5 42.88,-80.85l0 -7.92c-105.32,25.9 -164.63,10.13 -259.17,66.9 -54.96,33 -123.29,105.73 -151.45,175.92 -45.22,4.08 -112.77,-23.78 -161.02,-32.93 -55.69,-10.57 -117.7,-13.9 -177.52,-13.5 -124.36,0.81 -235.15,40.04 -353.12,32.47 -129.93,-8.34 -306.44,-99.63 -429.45,-150.06l-139.97 -50.72c-11.53,-14.06 9.96,-60.52 -101.17,-72.59 -12.4,-0.34 -10.48,-3.8 -8.87,7.46 12.93,47.47 -4.82,129.44 -27.03,172.19 -12.76,24.55 -22.58,44.36 -37.16,67.03l-32.62 46.55c-2.65,3.63 -3.75,5 -6.14,8.13l-110.66 137.88c-5.21,7.69 -5.15,6.66 -11,14.26l-44.17 60.25c-7.31,11.27 -11.16,22.34 -21.27,31l-20.57 -57.43z"/>
  <path class="fil0" d="M691.62 374.66c4.95,-11.81 15.18,-26.92 21.29,-32.79 -38.71,-2.86 -81,22.03 -100.92,39.47 -41.92,36.69 -30.8,29.96 -79.7,64.41 -60.45,42.6 -119.87,88.56 -118.68,171.47 45.36,-41.02 46.34,-17.49 82.74,-26.03 17.64,-4.14 12.55,60 11.64,68.02 -4.69,41.02 -19.83,125.64 -59.3,142.21 -95.6,40.14 -229.55,42.21 -294.16,112.87 -36.33,39.73 -62.44,77.67 -55.47,143.95 5.15,48.98 41.35,112.98 94.25,106.16 43.43,-5.6 87.15,-59.66 113.73,-86.48 20.17,-20.35 31.02,-33.25 54.66,-46.83 20.5,-11.78 60.52,-24.98 74.51,-0.33 21.26,42.15 -81.06,76.73 -126.6,78.98 -31.39,1.55 -19.13,8.09 -63.1,40.83 -39.9,29.7 -36.27,17.68 -82.66,23.94 -5.82,56.28 16.31,115.02 42.74,146.19 75.76,89.31 248.99,5.86 330.42,-73.94 18.89,-18.52 25.48,-32.61 41.96,-54.6l-11.86 -19.79c12.54,3.92 12.08,6.09 22.76,10.08 7.56,2.83 16.11,3.7 22.48,6.11 -7.38,3.59 -3.74,1.08 -10.95,3.28 -0.96,0.29 -2,0.56 -2.98,0.87 -0.99,0.31 -2.08,0.67 -3,0.96 -0.92,0.3 -2.25,0.79 -3,1.03 -0.76,0.25 -2.07,0.57 -3.01,1.06 -17.59,72.4 -58.4,220.87 -146.63,226.93 -41.62,2.86 -51.08,-31.71 -57.25,-68.86l-35.9 10.29c9.46,88.74 83.62,146.93 173.96,98.93 91.84,-48.79 116.47,-157.69 137.16,-176.47l-6.79 36.12c11.59,-16.83 74.59,-34.2 91.5,-37.7 39.22,-8.1 81.02,-11.29 122.3,-15.41 106.28,-10.61 121.11,-38.04 177.9,-89.64 -19.72,-56.95 -35.36,-89.79 -35.36,-160.68 0,-121.26 30.58,-231.69 20.87,-364.33 -3.57,-48.83 -10.6,-64.24 -26.2,-103.77 73.46,47.79 16.1,374.85 16.1,475.31 0,77.83 48.62,186.39 76.88,242.39 36.07,71.46 97.45,161.6 173.47,92.54 50.04,-45.46 84.94,-128.68 103.18,-216.48 20.08,-96.68 7.93,-195.07 -19.31,-282.45 -24.28,-77.87 -56.59,-155.06 -96.43,-223.02 -81.93,-139.76 -39.01,-112.86 -71.97,-169.66 -40.95,-70.55 -181.19,-141.04 -246.58,-156.86 -51.58,-12.48 -95.98,-11.85 -146.11,2.31 -55.61,15.7 -67.82,25.29 -102.57,59.39z"/>
  <path class="fil3" d="M1025.69 3176.46c49.42,14.31 71.57,9.42 126.99,50.15 35.34,25.98 55.99,44.06 75.51,99.81 24.65,-25.71 4.68,-74.59 41.18,-101.37 32.63,-23.94 88.92,-9.52 99.73,-47.53l18.53 -125.75c9,-41.27 17.71,-80.04 28.06,-119.56 9.83,-37.49 20.26,-76.12 32.38,-111.87 20.1,-59.28 25.85,-49.83 66.07,-81.73 88.12,-69.9 9.24,-125.56 44.07,-226.02 12.03,-34.7 24.97,-69.81 38.01,-105.91 7.1,-19.67 15.72,-33.14 8.4,-52.76l-48.15 -99.95c-10.9,-18.65 -20.73,-18.06 -41.11,-30.49 -31.98,-19.5 -58.92,-38.37 -85.91,-61.98 -52.18,-45.65 -90.28,-90.49 -134.57,-157.42 -17.65,-26.67 -97.41,-169.28 -97.14,-193.96 -10.29,66.1 54.05,327.85 77.2,404.75 28.7,95.34 61.21,178.53 93.57,269.69 14.53,40.94 26.97,56.56 1.53,88.77 -69.62,88.13 9.62,100.24 -24.81,188.1 -35.11,89.6 -92.19,201.8 -152.65,275.56 -100.99,123.21 -140.2,115.38 -166.88,139.45z"/>
  <path class="fil3" d="M2076.8 2311.2c1.8,15.31 108.91,106.13 124.54,119.58l94.74 70.82c12.67,9.08 42.4,20.97 46.5,35.08 13.37,46.06 -10.43,96.15 32.68,132.21 -2.13,13.06 -61.98,119.46 -72.86,138.08 -29.45,50.43 -90.08,151.14 -125.59,194.82 -15.83,19.47 -32.75,37.7 -52.54,55.13 -32.44,28.57 -115.87,79.73 -124.95,91 40.8,14.32 86.4,15.73 139.76,50.37 17.91,11.62 43.02,29.98 54.65,43.01 23.9,26.8 31.82,48.43 39.41,56.77 13.38,-31.81 7.4,-49.66 11.28,-84.42 4.32,-38.67 30.88,-26.87 59.35,-41.94 44.58,-23.61 -7.61,-39.44 41.32,-156.63 33.45,-80.11 115.78,-268.38 172.65,-324.44 40.08,-39.51 73.95,-57.09 66.5,-131.07 -3,-29.77 -15.75,-35.92 -37.54,-63.83 -16.54,-21.18 -28.48,-34.04 -42.47,-54.84 -40.21,-59.75 -101.32,-199.65 -101.86,-200.38 -36.8,8.31 -99.9,29.65 -155.75,42.74 -51.15,11.99 -113.97,24.81 -169.81,27.94z"/>
  <path class="fil4" d="M717.38 2532.04c-13.7,25.01 -18.18,49.03 5.9,69.17 -6.26,-22.27 -3.41,-6.1 5.77,-12.28 28.27,34.97 138.83,63.5 194.46,77.76 -5.27,-19.29 -16.17,-48.67 3.64,-77.04 -25.78,-13.66 -93.24,-18.89 -127.67,-23.44 -16.4,-2.17 -14.81,-3.81 -20.02,-8.98l12.87 -3.16c1.42,-0.1 14.06,0.88 16.06,1.11 67.77,7.75 124.34,22.1 190.52,40.54 33.75,9.4 69.4,22.02 99.42,33.91 39.07,15.48 53.37,24.14 83.06,43.38 15.14,-103.82 -49.32,-138.64 -62.26,-164l27.73 14.11c8.23,-54.34 15.02,-109.42 2.58,-165.23 -10.78,-48.39 -37.05,-93.38 -69.9,-109.49l34.72 -21.34c43.12,-36.38 30.13,-99.73 1.76,-116.91 -1.9,11.02 -9.27,26.13 -9.14,36.15 0.17,12.54 7.54,18.69 3.76,37.99 -4.5,23 -30.35,42.04 -61.04,33.22 -23.38,-6.72 -39.37,-33.72 -28.73,-61.92 8.32,-22.05 23.58,-36.73 28.73,-65.83 -16.56,2.67 -26.63,9.14 -36.95,17.78 -64.94,54.4 -8.63,112.33 -3.28,123.16 -58.87,7.89 -83.06,25.9 -122.23,75.43 -22.41,28.34 -56.16,93.84 -65.38,137.22l36.08 -1.33 -41.34 13.24c-14.95,5.92 -29.58,13.93 -39.76,21.58 -37.02,27.84 -45.81,55.07 -48.18,56.88l-3.77 1.67c-9.47,0.62 4.85,9.95 -7.42,-3.35z"/>
  <path class="fil0" d="M1134.8 1625.75l20.57 57.43c10.11,-8.65 13.96,-19.73 21.27,-31l44.17 -60.25c5.85,-7.6 5.8,-6.57 11,-14.26l110.66 -137.88c2.39,-3.13 3.49,-4.5 6.14,-8.13l32.62 -46.55c14.58,-22.66 24.4,-42.48 37.16,-67.03 22.21,-42.75 39.96,-124.72 27.03,-172.19l-51.64 -81.07c-2.62,98.32 -47.35,258.24 -128.39,315.92 -112.46,80.05 -189.08,-135.46 -216.34,-189.81 -1.2,12.61 -66.83,61.41 -89.82,71.3 9.87,12.06 20,22.53 29.27,36.39 37.26,55.67 42.55,65.05 72.49,129.9l73.81 197.23z"/>
  <path class="fil0" d="M368.78 818.56c-28.56,-144.94 26.51,-110.37 41.12,-241.49 -65.09,52.81 -96.75,77.67 -186.18,104.35 -52.83,15.76 -169.18,44.55 -204.13,87.25 -42.28,51.66 119.97,130.76 134.83,129.05 3.58,-0.41 33.09,-22.2 42.75,-27.32 35.08,-18.57 134.8,-47.68 171.59,-51.84z"/>
  <path class="fil1" d="M685.64 895.63c42.27,-2.9 79.85,-8.93 113.95,13.44 9.37,-7.82 -1.57,10.86 -4.65,-6.23 -3.84,-21.3 56.74,-13.65 53.04,-153.47 -1.88,-70.89 -31.77,-136.74 -84.02,-152.06 -99.23,-29.09 -161.91,158.37 -77.79,280.53 12.66,18.38 2.05,16.67 -0.53,17.79z"/>
  <path class="fil1" d="M1725.61 3472.48c33.11,55.67 -6.03,116.93 57.49,147.11 47,22.33 87.22,-61.6 77.5,-118.84 -2.62,-15.46 -7.32,-58.69 -17.44,-66.32 -14.5,-10.93 4.81,2.1 -4.73,-2.47 -0.77,-0.37 -1.79,-0.66 -2.6,-1 -49.84,-20.66 -76.66,-23.94 -127.75,-14.78 -16.54,2.96 -16.57,3.28 -31.26,8.82 -1.06,0.4 -4.03,1.46 -5.08,1.84l-38.77 18.72c-13.33,6.77 -20.97,14.52 -24.8,30.6 -15.41,64.85 -17.84,145.34 55.02,163.8 32.49,8.23 43.23,4.62 58.23,-19.92 12.68,-20.75 17.76,-41.24 11.05,-68.9l-6.87 -78.68z"/>
  <path class="fil3" d="M491.01 1486.72c1.71,32.25 11.46,45.54 5.68,83.63 -5.91,38.94 -12.1,38.78 -22.73,65.24 3.33,-6.92 47.84,-26.13 70.55,-75.05 1.6,-3.45 1.74,-4.51 3.4,-7.03 4.26,-6.47 2.67,-4.29 6.75,-6.98 48.77,61.91 20.86,129.71 15.52,169.64 61.63,-43.8 76.89,-87.74 81.2,-178.16l-16.29 -4.25c-0.93,-0.41 -1.86,-0.83 -2.75,-1.29 -5.78,-2.94 -4.35,-2.2 -7.77,-5.28 45.63,-4.04 81.34,26.22 105.4,43.06 29.45,-112.43 2.43,-185.97 -84.54,-229.64 -14.45,19.77 -21.29,35.77 -44.66,67.06 -9.6,12.85 -3.91,10.9 -17.86,21.84 -40.4,31.69 -2.15,19.73 -91.91,57.2z"/>
  <g id="_3096348333280">
   <path class="fil2 str0" d="M3076.56 3516.59c1.16,0.64 2.34,1.21 3.51,1.6 1.34,0.45 2.63,0.54 3.96,0.92 4.42,1.26 8.06,7.12 10.5,10.69 1.21,1.77 2.44,4.28 3.5,6.19 1.07,1.93 2.16,3.86 3.2,5.81l14.52 22.62 0.04 0.07c4.8,8.3 3.79,5.72 4.11,15.09 0.11,3.06 -0.34,5.74 -1.12,8.68 -0.16,0.6 -0.8,2.77 -0.68,3.34 0.06,0.26 0.44,0.57 0.99,0.9l2.27 -1.98c1.5,-1.31 2.89,-2.49 4.56,-3.57 0.99,-0.95 2.19,-2.54 3.08,-3.58l2.88 -3.37 2.57 3.62c1.88,2.65 3.14,4.15 5.86,5.82 4.59,2.81 7.08,6.67 9.81,11.23 1.99,3.32 3.42,6.5 5.22,9.8 1.88,3.44 6.73,8.01 9.44,10.78l7.92 8.09 -26.14 -5.39 2.28 10.08 -5.9 6.07c-2.71,2.61 -3.03,3.72 -6.35,6.01 -1.72,1.18 -4.5,3.77 -6.47,4.14 -2.09,0.39 -6.2,-1.35 -8.34,-1.93l-1.97 -0.53 -0.49 -1.98c-1,-4.04 0.44,-7.77 3,-10.87 0.45,-0.54 0.89,-1.01 1.33,-1.44 -0.25,-0.37 -0.51,-0.73 -0.75,-1.03 -1.11,0.24 -2.15,0.55 -3.44,0.7 -3.8,0.41 -7.91,0.03 -11.68,-0.54l-1.81 -0.27 -8.79 -18.25c-51.21,5.75 -156.96,3 -199.18,-23.69 -13.49,-8.52 -26.49,-12.7 -32.83,-28.67 -3.35,-8.45 -3.57,-12.6 1.62,-20.46 5.5,-8.34 17.01,-16.43 25.05,-22.31 13.35,-9.77 26.35,-19.3 38.7,-30.37 2.25,-2.01 4.43,-4.1 6.68,-6.1 2.83,-2.52 5.81,-4.78 8.88,-7 3.11,-2.26 6.19,-4.38 9.53,-6.28l0.1 -0.06 10.15 -4.94 0.08 -0.03c1.35,-0.57 3.59,-1.75 5.43,-1.98 1.22,-0.33 2.8,-1.04 3.98,-1.51 5.33,-2.13 11.66,-4.66 16.54,-7.72 1.87,-1.18 2.62,-2.02 4.16,-3.43 2.21,-2.02 5.12,-2.84 7.94,-3.58 7.87,-2.08 16.3,-3.55 24.3,-5.09 13.51,-2.6 27.51,-5.79 41.14,-7.39 9.11,-1.07 18.79,-1.39 27.39,2.32 12.29,5.31 20.11,18.23 26.12,29.57 5.02,9.48 9.46,19.4 13.77,29.22 6.04,13.77 11.87,27.65 17.77,41.49 2.96,6.94 7.01,15.55 7.93,23 0.41,3.35 0.17,6.58 -0.11,9.92 -0.2,2.41 -0.46,5.11 -0,7.5 1.18,6.2 8.21,9.24 13.48,11.16 8.66,3.16 6.6,-0.65 10.41,-0.07 2.57,0.39 3.19,2.77 3.87,4.83 1.09,3.28 2.24,6.52 3.47,9.75l1.26 3.29 -3.32 1.19c-6.37,2.29 -17.2,6.71 -23.82,3.54 -3.56,-1.71 -6.32,-5.5 -8.82,-8.48 -4.47,-5.33 -9.09,-9.85 -14.55,-14.2 -17.38,-13.84 -32.66,-34.89 -44.42,-53.65 -1.8,-2.87 -3.63,-5.72 -5.67,-8.43 -4.87,-6.48 -10.74,-12.59 -17.69,-8.86zm50.15 82.66c-1.34,5.71 -2.59,10.03 -6.49,14.02l19.36 2.4c-0.25,-0.9 -0.52,-1.79 -0.82,-2.67 -2.05,-5.92 -6.91,-10.2 -12.05,-13.75z"/>
  </g>
  <path class="fil1 str1" d="M3145.06 3632.97l-3.04 -13.48 20.3 4.19c-12.96,-13.24 -7.87,-9.04 -15.16,-21.22 -8.16,-13.62 -8.4,-6.76 -15.53,-16.82 -5.87,6.87 -1.34,1.69 -7.99,7.5 18.59,11.61 17.72,16.95 20.67,26.6l-30.68 -3.8c2.8,-6.38 6.16,-2.24 9.8,-17.77 -14.5,-5.05 -6.59,-7.43 -6.98,-18.46 -0.33,-9.48 1.08,-5.31 -3.65,-13.48l-14.55 -22.67c-0.57,-1.08 -6.18,-11.23 -6.57,-11.8 -10.64,-15.56 -6.19,-4.57 -21.12,-14.88 13.59,-13.51 25.14,3.76 32.3,15.17 11.36,18.12 26.77,39.34 43.65,52.78 25.9,20.62 14.72,29.07 43.86,18.59 -8.51,-22.27 0.79,-6.48 -15.71,-12.5 -22.75,-8.29 -14.08,-18.92 -15.62,-31.41 -0.82,-6.67 -5.1,-16.03 -7.68,-22.07 -48.4,-113.52 -43.28,-108.36 -122.37,-93.16 -49.52,9.52 -14.02,4.36 -52.32,19.63 -8.92,3.56 -0.66,-0.21 -9.33,3.46l-9.97 4.85c-3.23,1.84 -5.74,3.56 -9.21,6.07 -8.06,5.84 -8.73,7 -15.28,12.88 -28.45,25.51 -54.4,38.71 -63.17,52.01 -4.67,7.09 -4.11,10.18 -1.29,17.28 5.76,14.53 16.31,17.45 31.46,27.03 42.12,26.62 150.33,28.87 199.38,22.89l9.07 18.82c18.88,2.83 13.21,-4.79 19.44,4.16 6.65,-2.34 -7.13,3.19 -5.05,11.61 9.07,2.45 4.9,3.13 11.95,-1.72 4.16,-2.86 1.29,-1.2 5.91,-5.65l4.51 -4.64z"/>
  <path class="fil1" d="M884.26 3316.34c14.81,-2.75 32.51,0.68 47.42,-3.95l43.25 -33.1c0.58,-0.45 1.35,-1.18 1.93,-1.62 0.57,-0.44 1.38,-1.11 1.96,-1.54l19.02 -13.55c8.02,-5.22 31.75,-14.47 38.28,-13.79l-35.92 23.93c-0.65,0.43 -1.6,0.94 -2.25,1.37l-4.35 2.84c-0.6,0.45 -1.45,1.09 -2.03,1.56l-3.73 3.48c-28.59,24.79 -11.28,-3.59 -28.16,26.26 -5.81,10.27 -69.58,56.96 19.95,62.51 46.03,2.85 91.69,-21.56 129.88,-38.88 13.94,-6.32 6.37,-6.13 19.22,-13.78 36.25,-21.58 13.04,-6.46 33.64,-34.49 7.45,-10.14 12.83,-8.92 10.28,-19.13 -1.65,-6.62 -2.05,-3.69 -9.09,-11.83l-33.96 -27.59c-0.94,-0.52 -3.78,-1.78 -4.72,-2.26l-6.64 -3.54c-8.91,-4.77 -0.18,-0.6 -9.48,-4.95l-27.41 -11.55c-21.31,-9.83 -60.08,-23.41 -84.27,-7.93 -0.66,0.42 -1.54,1.02 -2.2,1.46 -0.66,0.44 -1.53,1.05 -2.19,1.5l-28.25 18.13c-32.39,28.73 -6.61,-7.9 -29.18,24.96 -7.29,10.61 -8.48,4.4 -16.77,15.23l-10.3 14.15c-0.54,0.56 -1.4,1.22 -1.95,1.79l-9.28 12.34c-5.93,11.01 -13.5,22.61 -12.7,32z"/>
  <path class="fil1" d="M1890.9 3292.01c55.23,3.48 47.84,5.89 78.85,-36.44l19.24 -16.92c4.82,-3.68 1.37,-1.92 7.63,-6.26 10.44,-7.23 9.93,-6.55 21.29,-8.81 -0.86,0.87 -2.25,0.73 -2.79,2.4l-15.22 13.23c-7.07,9.95 -0.87,12.39 -12.65,19.45 -11.37,6.81 -42.55,20.18 -44.79,62.15 18.22,12.33 44.47,9.4 66.88,6.91 53.69,-5.96 152.88,-12.85 174.89,-71.74 -8.55,-11.28 -18.63,-21.35 -31.69,-30.61l-14.13 -11.49c-23.37,-20.91 -103.69,-48.94 -137,-52.77l-14.64 0.18c-19.32,4.9 -105.79,100.63 -95.86,130.73z"/>
  <path class="fil5" d="M717.61 886.03c-4.42,-11.56 -66.17,-76.19 -18.87,-167.95 38.87,13.4 65.9,-0.5 64.91,-43.43 16.84,1.44 26.7,5.24 38.68,14.2 15.08,11.29 12.05,14.91 28.37,28.55 0.71,0.59 1.82,1.48 2.8,2.13 -12.19,-93.71 -103.65,-155.56 -156.54,-60.31 -30.53,54.97 -30.15,129.63 -1.48,188.82 8.98,18.55 15.82,39.27 42.13,38z"/>
  <path class="fil4" d="M1076.66 2632.87c-20.4,-11.14 -108.92,-37.91 -135.08,-41.64 -10.84,18.13 -21.58,43.49 -7.9,70.03 40.59,78.77 143.36,46.98 142.98,-28.39z"/>
  <path class="fil5" d="M381.78 812.59c6.2,-9.82 -15.66,-88.52 35.18,-123.25 12.36,28.91 64.59,25.72 56.91,-26.03l23.84 7.63 4.16 -53.02c-116.07,-46.86 -154.56,159.82 -120.09,194.66z"/>
  <path class="fil6" d="M458.7 1357.98l-2.13 -33.75c-13.63,1.93 -32.95,13.73 -48.44,20.38 -1.63,74.13 53.24,76.49 83.16,32.25 15.89,-23.49 48.73,-89.95 52.98,-119.76l-52.1 42.01c-47.81,34.95 -17.91,13.3 -33.46,58.88z"/>
  <path class="fil7" d="M1034.16 2150.24c-13.48,10.88 -6.54,39.57 4.14,49.4 27.38,25.2 71.38,0.6 64.05,-34.83 -3.51,-16.95 -7.79,-6.87 -43.11,-11.1 -7.86,-0.94 -21.75,-6.16 -25.08,-3.47z"/>
 </g>
</svg>
