<?xml version="1.0" encoding="UTF-8"?>
<!DOCTYPE svg PUBLIC "-//W3C//DTD SVG 1.1//EN" "http://www.w3.org/Graphics/SVG/1.1/DTD/svg11.dtd">
<!-- Creator: CorelDRAW 2017 -->
<svg xmlns="http://www.w3.org/2000/svg" xml:space="preserve" width="84.6667mm" height="99.9126mm" version="1.1" style="shape-rendering:geometricPrecision; text-rendering:geometricPrecision; image-rendering:optimizeQuality; fill-rule:evenodd; clip-rule:evenodd"
viewBox="0 0 215.83 254.69"
 xmlns:xlink="http://www.w3.org/1999/xlink">
 <defs>
  <style type="text/css">
   <![CDATA[
    .fil3 {fill:#949597}
    .fil5 {fill:#A3A4A6}
    .fil4 {fill:#B7B8BA}
    .fil2 {fill:#D5EBF6}
    .fil1 {fill:#A3A4A6;fill-rule:nonzero}
    .fil0 {fill:url(#id0)}
   ]]>
  </style>
  <linearGradient id="id0" gradientUnits="userSpaceOnUse" x1="107.91" y1="232.65" x2="107.91" y2="105.11">
   <stop offset="0" style="stop-opacity:1; stop-color:#E7E7E7"/>
   <stop offset="0.341176" style="stop-opacity:1; stop-color:#E7E7E7"/>
   <stop offset="0.580392" style="stop-opacity:1; stop-color:white"/>
   <stop offset="1" style="stop-opacity:1; stop-color:#E6E6E8"/>
  </linearGradient>
 </defs>
 <g id="Layer_x0020_1">
  <metadata id="CorelCorpID_0Corel-Layer"/>
  <g id="_2293641977744">
   <polygon class="fil0" points="-0,105.11 215.83,105.11 215.83,232.65 -0,232.65 "/>
   <path class="fil1" d="M1.34 106.11l213.48 0 0 125.53 -213.82 0c0.01,-41.84 0.01,-83.69 0,-125.53l0.34 0zm212.81 0.67l-212.48 0 0 124.19 212.48 0 0 -124.19z"/>
   <path class="fil2" d="M2.9 101.15l210.03 0c1.59,0 2.9,1.3 2.9,2.9l0 0c0,1.59 -1.3,2.9 -2.9,2.9l-210.03 0c-1.59,0 -2.9,-1.3 -2.9,-2.9l0 0c0,-1.59 1.3,-2.9 2.9,-2.9z"/>
   <path class="fil3" d="M2.9 102.21l210.03 0c1.59,0 2.9,1.3 2.9,2.9l0 0c0,1.59 -1.3,2.9 -2.9,2.9l-210.03 0c-1.59,0 -2.9,-1.3 -2.9,-2.9l0 -0c0,-1.59 1.3,-2.9 2.9,-2.9z"/>
   <path class="fil2" d="M2.9 228.87l210.03 0c1.59,0 2.9,1.3 2.9,2.9l0 0c0,1.59 -1.3,2.9 -2.9,2.9l-210.03 0c-1.59,0 -2.9,-1.3 -2.9,-2.9l0 0c0,-1.59 1.3,-2.9 2.9,-2.9z"/>
   <path class="fil3" d="M2.9 229.76l210.03 0c1.59,0 2.9,1.3 2.9,2.9l0 0c0,1.59 -1.3,2.9 -2.9,2.9l-210.03 0c-1.59,0 -2.9,-1.3 -2.9,-2.9l0 -0c0,-1.59 1.3,-2.9 2.9,-2.9z"/>
   <path class="fil4" d="M107.15 235.55l1.54 0 0 8.14c2.69,0.37 4.76,2.68 4.76,5.48 0,3.05 -2.48,5.53 -5.53,5.53 -3.05,0 -5.53,-2.48 -5.53,-5.53 0,-2.79 2.07,-5.1 4.76,-5.48l0 -8.14zm0.77 9.43c2.31,0 4.19,1.88 4.19,4.19 0,2.31 -1.87,4.19 -4.19,4.19 -2.31,0 -4.19,-1.87 -4.19,-4.19 0,-2.31 1.87,-4.19 4.19,-4.19z"/>
   <path class="fil1" d="M161.83 100.32l-50.98 -29.43c0.52,-0.52 0.91,-1.18 1.1,-1.91l54.3 31.35 -4.41 0zm-56.86 -29.44l-51 29.44 -4.4 0 54.31 -31.36c0.19,0.74 0.57,1.39 1.09,1.91z"/>
   <path class="fil5" d="M107.91 64.48c1.91,0 3.45,1.55 3.45,3.45 0,1.91 -1.55,3.45 -3.45,3.45 -1.91,0 -3.45,-1.55 -3.45,-3.45 0,-1.91 1.55,-3.45 3.45,-3.45z"/>
   <path class="fil1" d="M100.76 187.01c0,-0.16 -0.02,-0.39 -0.06,-0.66 -0.12,-1.69 -0.19,-2.92 -0.19,-3.68 0,-3.21 0.51,-6.11 1.56,-8.66 1.05,-2.55 2.88,-5.28 5.49,-8.22 0.72,-0.88 1.83,-2.1 3.31,-3.66 5.1,-5.47 7.65,-10.16 7.65,-14.08 0,-4.09 -1.42,-7.4 -4.28,-9.93 -2.86,-2.53 -6.56,-3.78 -11.14,-3.78 -4.42,0 -8.04,1.32 -10.88,3.95 -2.82,2.63 -4.3,6.04 -4.42,10.24 1.21,-0.95 2.36,-1.67 3.5,-2.14 1.11,-0.47 2.26,-0.7 3.43,-0.7 2.24,0 4.11,0.78 5.61,2.32 1.5,1.54 2.26,3.47 2.26,5.8 0,2.65 -1.01,4.89 -3,6.74 -2.01,1.85 -4.46,2.78 -7.36,2.78 -3.58,0 -6.56,-1.44 -8.96,-4.3 -2.41,-2.88 -3.62,-6.5 -3.62,-10.88 0,-6.62 2.59,-12.11 7.77,-16.45 5.18,-4.34 11.76,-6.5 19.76,-6.5 8.51,0 15.46,2.1 20.87,6.27 5.41,4.17 8.1,9.44 8.1,15.77 0,4.05 -1.01,7.61 -3.04,10.67 -2.01,3.04 -6.07,6.74 -12.13,11.08 -5.26,3.8 -8.61,6.89 -10.12,9.21 -1.48,2.32 -2.22,5.06 -2.22,8.2l0 0.6 -7.9 0zm-5.55 16.37c0,-2.53 0.88,-4.67 2.67,-6.44 1.79,-1.77 3.99,-2.65 6.6,-2.65 2.57,0 4.75,0.86 6.5,2.61 1.75,1.75 2.61,3.91 2.61,6.48 0,2.61 -0.86,4.79 -2.61,6.54 -1.75,1.75 -3.93,2.63 -6.5,2.63 -2.61,0 -4.81,-0.88 -6.6,-2.65 -1.79,-1.77 -2.67,-3.93 -2.67,-6.52z"/>
   <path class="fil1" d="M106.91 63.9l0 -63.9 2.01 0 0 63.9c-0.32,-0.08 -0.66,-0.12 -1.01,-0.12 -0.35,0 -0.68,0.04 -1.01,0.12z"/>
  </g>
 </g>
</svg>
